# xmcd CD database file
#
# Track frame offsets:
#	150
#	3562
#	20820
#	41337
#	63690
#	82492
#	103657
#	126447
#	142180
#	161175
#	180000
#	199620
#	218475
#
# Disc length: 3182 seconds
#
# Revision: 0
# Processed by: cddbd v1.4PL0 Copyright (c) Steve Scherf et al.
# Submitted via: CD2WAV32(EN) R3.19
#
DISCID=bd0c6c0d
DTITLE=MINMI - Miracle
DYEAR=1900
DGENRE=
TTITLE0=Intro
TTITLE1=The Perfect Vision
TTITLE2=T.T.T.
TTITLE3=Home Town
TTITLE4=Once Upon a Star
TTITLE5=Eternal Destination feat.TMG&4WD
TTITLE6=SUNSHINE feat. the Salasious SAL
TTITLE7=LOVE SONG
TTITLE8=You need a... feat.TAKAFIN
TTITLE9=KAIRAKUNOKANATA
TTITLE10=Fly High
TTITLE11=south orange
TTITLE12=Miracle
EXTD=
EXTT0=
EXTT1=
EXTT2=
EXTT3=
EXTT4=
EXTT5=
EXTT6=
EXTT7=
EXTT8=
EXTT9=
EXTT10=
EXTT11=
EXTT12=
PLAYORDER=
